<?xml version="1.0" encoding="utf-8"?>
<!-- Generator: Adobe Illustrator 25.4.1, SVG Export Plug-In . SVG Version: 6.00 Build 0)  -->
<svg version="1.1" id="Layer_1" xmlns="http://www.w3.org/2000/svg" xmlns:xlink="http://www.w3.org/1999/xlink" x="0px" y="0px"
	 viewBox="0 0 30 30" style="enable-background:new 0 0 30 30;" xml:space="preserve">
<g>
	<path d="M12.41,2.21l0.76,1.78l0.28,0.66l0.71-0.06c0.25-0.02,0.51-0.03,0.78-0.03c0.28,0,0.57,0.01,0.87,0.04l0.72,0.06l0.28-0.66
		l0.77-1.78c1.65,0.34,3.23,0.99,4.63,1.92l-0.72,1.8L21.23,6.6l0.55,0.47c0.43,0.37,0.82,0.76,1.17,1.16l0.47,0.55l0.67-0.27
		l1.8-0.72c0.48,0.72,0.88,1.46,1.19,2.22c0.31,0.76,0.56,1.56,0.72,2.41l-1.78,0.76l-0.66,0.28l0.06,0.71
		c0.04,0.53,0.04,1.08,0,1.64l-0.06,0.72l0.66,0.28l1.78,0.77c-0.34,1.65-0.99,3.23-1.92,4.63l-1.8-0.72l-0.67-0.27l-0.47,0.55
		c-0.37,0.43-0.76,0.82-1.16,1.17l-0.55,0.47l0.27,0.67l0.72,1.8c-0.72,0.48-1.46,0.88-2.22,1.19c-0.76,0.31-1.56,0.56-2.41,0.72
		l-0.76-1.78l-0.28-0.66l-0.71,0.06c-0.25,0.02-0.51,0.03-0.78,0.03c-0.28,0-0.57-0.01-0.87-0.04l-0.72-0.06l-0.28,0.66l-0.77,1.78
		c-1.65-0.34-3.23-0.99-4.63-1.92l0.72-1.8l0.27-0.67l-0.55-0.47c-0.43-0.37-0.82-0.76-1.17-1.16l-0.47-0.55L5.93,21.5l-1.8,0.72
		C3.65,21.5,3.25,20.75,2.93,20c-0.31-0.76-0.56-1.56-0.72-2.41l1.78-0.76l0.66-0.28l-0.06-0.71c-0.04-0.53-0.04-1.08,0-1.64
		l0.06-0.72l-0.66-0.28l-1.78-0.77c0.34-1.65,0.99-3.23,1.92-4.63l1.8,0.72L6.6,8.77l0.47-0.55C7.43,7.79,7.82,7.4,8.22,7.06
		l0.55-0.47L8.5,5.93l-0.72-1.8C8.5,3.65,9.25,3.25,10,2.93C10.76,2.62,11.57,2.38,12.41,2.21 M15,23.12c1.07,0,2.11-0.21,3.1-0.62
		c4.13-1.71,6.1-6.47,4.39-10.6c-1.26-3.04-4.2-5.01-7.5-5.01c-1.07,0-2.11,0.21-3.1,0.62c-2,0.83-3.56,2.39-4.39,4.39
		c-0.83,2-0.83,4.21,0,6.21C8.76,21.15,11.71,23.12,15,23.12 M16.98,1.09L15.9,3.6c-0.31-0.03-0.63-0.04-0.95-0.04
		c-0.28,0-0.57,0.01-0.86,0.03l-1.07-2.5c-1.14,0.16-2.29,0.45-3.4,0.92C8.5,2.47,7.49,3.08,6.56,3.77L7.57,6.3
		C7.11,6.69,6.69,7.12,6.3,7.58L3.77,6.56c-1.42,1.89-2.34,4.12-2.68,6.46L3.6,14.1c-0.05,0.6-0.05,1.2-0.01,1.8l-2.5,1.07
		c0.16,1.14,0.45,2.29,0.92,3.4c0.46,1.12,1.07,2.13,1.76,3.05l2.53-1.01c0.39,0.46,0.82,0.88,1.28,1.27l-1.01,2.53
		c1.89,1.42,4.12,2.34,6.46,2.68l1.08-2.51c0.31,0.03,0.63,0.04,0.95,0.04c0.28,0,0.57-0.01,0.86-0.03l1.07,2.5
		c1.14-0.16,2.29-0.45,3.4-0.92c1.12-0.46,2.13-1.07,3.05-1.76l-1.01-2.53c0.46-0.39,0.88-0.82,1.27-1.28l2.53,1.01
		c1.42-1.89,2.34-4.12,2.68-6.46L26.4,15.9c0.05-0.6,0.05-1.2,0.01-1.8l2.5-1.07c-0.16-1.14-0.45-2.29-0.92-3.4
		c-0.46-1.12-1.07-2.13-1.76-3.05L23.7,7.57c-0.39-0.46-0.82-0.88-1.28-1.27l1.01-2.53C21.54,2.35,19.32,1.43,16.98,1.09L16.98,1.09
		z M15,22.12c-2.79,0-5.44-1.65-6.58-4.39c-1.5-3.63,0.22-7.79,3.85-9.29c0.89-0.37,1.81-0.54,2.72-0.54c2.79,0,5.44,1.65,6.58,4.39
		c1.5,3.63-0.22,7.79-3.85,9.29C16.83,21.94,15.91,22.12,15,22.12L15,22.12z"/>
</g>
</svg>
