<?xml version="1.0" encoding="utf-8"?>
<!-- Generator: Adobe Illustrator 25.4.1, SVG Export Plug-In . SVG Version: 6.00 Build 0)  -->
<svg version="1.1" xmlns="http://www.w3.org/2000/svg" xmlns:xlink="http://www.w3.org/1999/xlink" x="0px" y="0px"
	 viewBox="0 0 540 226" style="enable-background:new 0 0 540 226;" xml:space="preserve">
<style type="text/css">
	.st0{fill:none;}
	.st1{opacity:0.24;}
	.st2{fill:#D4145A;}
	.st3{opacity:0.35;fill:url(#Error3);}
	.st4{fill:none;stroke:#000000;stroke-width:2;stroke-miterlimit:10;}
	.st5{font-family:'MyriadPro-Regular';}
	.st6{font-size:12px;}
	.st7{fill:none;stroke:#000000;stroke-miterlimit:10;}
	.st8{fill:none;stroke:#000000;stroke-miterlimit:10;stroke-dasharray:7.8372,3.9186;}
	.st9{font-family:'Monaco';}
	.st10{font-size:10px;}
	.st11{display:none;}
	.st12{display:inline;}
	.st13{fill:#0000FF;}
	.st14{fill:none;stroke:#0000FF;stroke-width:2;stroke-miterlimit:10;}
	.st15{fill:#FFFFFF;}
	.st16{fill:none;stroke:#00FF00;stroke-miterlimit:10;stroke-dasharray:1,1;}
	.st17{fill:none;stroke:#808080;stroke-width:2;stroke-miterlimit:10;}
	.st18{fill:none;stroke:#D4145A;stroke-width:2;stroke-miterlimit:10;}
	.st19{display:inline;opacity:0.24;}
</style>
<pattern  y="-44" width="12.69" height="12.69" patternUnits="userSpaceOnUse" id="Error3" viewBox="0 -12.69 12.69 12.69" style="overflow:visible;">
	<g>
		<rect y="-12.69" class="st0" width="12.69" height="12.69"/>
		<g class="st1">
			<polygon class="st0" points="2.24,-12.69 0,-10.45 0,-2.24 10.45,-12.69 			"/>
			<polygon class="st0" points="10.45,0 12.69,-2.24 12.69,-10.45 2.24,0 			"/>
			<polygon class="st2" points="12.69,-10.45 12.69,-12.69 10.45,-12.69 0,-2.24 0,0 2.24,0 			"/>
			<polygon class="st2" points="12.69,0 12.69,-2.24 10.45,0 			"/>
			<polygon class="st2" points="0,-12.69 0,-10.45 2.24,-12.69 			"/>
		</g>
	</g>
</pattern>
<g id="Graph">
	<g id="Background">
		<rect x="276" y="12" class="st3" width="202" height="161"/>
		<g>
			<g>
				<line class="st4" x1="21" y1="173" x2="501.65" y2="172.51"/>
				<g>
					<polygon points="498.74,182.49 516,172.5 498.72,162.54 					"/>
				</g>
			</g>
		</g>
		<text transform="matrix(1 0 0 1 491.9014 198.7129)" class="st5 st6">Time</text>
		<g>
			<g>
				<line class="st7" x1="144.5" y1="12" x2="144.5" y2="16"/>
				<line class="st8" x1="144.5" y1="19.92" x2="144.5" y2="182.54"/>
				<line class="st7" x1="144.5" y1="184.5" x2="144.5" y2="188.5"/>
			</g>
		</g>
		<g>
			<g>
				<line class="st7" x1="275.5" y1="12" x2="275.5" y2="16"/>
				<line class="st8" x1="275.5" y1="19.92" x2="275.5" y2="182.54"/>
				<line class="st7" x1="275.5" y1="184.5" x2="275.5" y2="188.5"/>
			</g>
		</g>
		<text transform="matrix(1 0 0 1 96.2495 202.6733)"><tspan x="0" y="0" class="st9 st10">fetchSomeUsers() </tspan><tspan x="30" y="12" class="st9 st10">called</tspan></text>
		<text transform="matrix(1 0 0 1 228.2495 202.6733)"><tspan x="0" y="0" class="st9 st10">fetchSomeUsers() </tspan><tspan x="33.01" y="12" class="st9 st10">fails</tspan></text>
	</g>
	<g id="async_x2F_await" class="st11">
		<g id="fetchUser_x28_1_x29_" class="st12">
			<g>
				<line class="st13" x1="184" y1="96" x2="446" y2="96"/>
				<g>
					<line class="st14" x1="192.09" y1="96" x2="437.91" y2="96"/>
					<g>
						<g>
							<path class="st15" d="M192.52,103.52c-4.15,0-7.52-3.37-7.52-7.52s3.37-7.52,7.52-7.52c4.15,0,7.52,3.37,7.52,7.52
								S196.67,103.52,192.52,103.52z"/>
							<path class="st13" d="M192.52,104.52c4.7,0,8.52-3.82,8.52-8.52s-3.82-8.52-8.52-8.52c-4.7,0-8.52,3.82-8.52,8.52
								S187.82,104.52,192.52,104.52C197.22,104.52,187.82,104.52,192.52,104.52z M192.52,89.48c3.6,0,6.52,2.92,6.52,6.52
								s-2.92,6.52-6.52,6.52c-3.6,0-6.52-2.92-6.52-6.52S188.92,89.48,192.52,89.48C196.12,89.48,188.92,89.48,192.52,89.48z"/>
						</g>
					</g>
					<g>
						<g>
							<path class="st15" d="M437.48,103.52c4.15,0,7.52-3.37,7.52-7.52s-3.37-7.52-7.52-7.52c-4.15,0-7.52,3.37-7.52,7.52
								S433.33,103.52,437.48,103.52z"/>
							<path class="st13" d="M437.48,104.52c-4.7,0-8.52-3.82-8.52-8.52s3.82-8.52,8.52-8.52c4.7,0,8.52,3.82,8.52,8.52
								S442.18,104.52,437.48,104.52C432.78,104.52,442.18,104.52,437.48,104.52z M437.48,89.48c-3.6,0-6.52,2.92-6.52,6.52
								s2.92,6.52,6.52,6.52c3.6,0,6.52-2.92,6.52-6.52S441.08,89.48,437.48,89.48C433.88,89.48,441.08,89.48,437.48,89.48z"/>
						</g>
					</g>
				</g>
			</g>
			<text transform="matrix(1 0 0 1 57.4634 99.0693)" class="st9 st10">fetchUser(1)</text>
		</g>
		<g id="fetchUser_x28_2_x29_" class="st12">
			<g>
				<line class="st13" x1="184" y1="140" x2="366" y2="140"/>
				<g>
					<line class="st14" x1="192.09" y1="140" x2="357.91" y2="140"/>
					<g>
						<g>
							<path class="st15" d="M192.52,147.52c-4.15,0-7.52-3.37-7.52-7.52s3.37-7.52,7.52-7.52c4.15,0,7.52,3.37,7.52,7.52
								S196.67,147.52,192.52,147.52z"/>
							<path class="st13" d="M192.52,148.52c4.7,0,8.52-3.82,8.52-8.52s-3.82-8.52-8.52-8.52c-4.7,0-8.52,3.82-8.52,8.52
								S187.82,148.52,192.52,148.52C197.22,148.52,187.82,148.52,192.52,148.52z M192.52,133.48c3.6,0,6.52,2.92,6.52,6.52
								s-2.92,6.52-6.52,6.52c-3.6,0-6.52-2.92-6.52-6.52S188.92,133.48,192.52,133.48C196.12,133.48,188.92,133.48,192.52,133.48z"
								/>
						</g>
					</g>
					<g>
						<g>
							<path class="st15" d="M357.48,147.52c4.15,0,7.52-3.37,7.52-7.52s-3.37-7.52-7.52-7.52c-4.15,0-7.52,3.37-7.52,7.52
								S353.33,147.52,357.48,147.52z"/>
							<path class="st13" d="M357.48,148.52c-4.7,0-8.52-3.82-8.52-8.52s3.82-8.52,8.52-8.52c4.7,0,8.52,3.82,8.52,8.52
								S362.18,148.52,357.48,148.52C352.78,148.52,362.18,148.52,357.48,148.52z M357.48,133.48c-3.6,0-6.52,2.92-6.52,6.52
								s2.92,6.52,6.52,6.52c3.6,0,6.52-2.92,6.52-6.52S361.08,133.48,357.48,133.48C353.88,133.48,361.08,133.48,357.48,133.48z"/>
						</g>
					</g>
				</g>
			</g>
			<text transform="matrix(1 0 0 1 56.4634 143.0693)" class="st9 st10">fetchUser(2)</text>
		</g>
	</g>
	<g id="Effection">
		<g id="fetchUser_x28_1_x29__00000034781291123168626780000002916014990954217347_">
			<line class="st16" x1="191" y1="96" x2="145" y2="52"/>
			<text transform="matrix(1 0 0 1 286.311 99.3564)" class="st9 st10">halted</text>
			<g>
				<line class="st13" x1="184" y1="96" x2="276" y2="96"/>
				<g>
					<line class="st14" x1="192.09" y1="96" x2="276" y2="96"/>
					<g>
						<g>
							<path class="st15" d="M192.52,103.52c-4.15,0-7.52-3.37-7.52-7.52s3.37-7.52,7.52-7.52c4.15,0,7.52,3.37,7.52,7.52
								S196.67,103.52,192.52,103.52z"/>
							<path class="st13" d="M192.52,104.52c4.7,0,8.52-3.82,8.52-8.52s-3.82-8.52-8.52-8.52c-4.7,0-8.52,3.82-8.52,8.52
								S187.82,104.52,192.52,104.52C197.22,104.52,187.82,104.52,192.52,104.52z M192.52,89.48c3.6,0,6.52,2.92,6.52,6.52
								s-2.92,6.52-6.52,6.52c-3.6,0-6.52-2.92-6.52-6.52S188.92,89.48,192.52,89.48C196.12,89.48,188.92,89.48,192.52,89.48z"/>
						</g>
					</g>
				</g>
			</g>
			<g>
				<line class="st17" x1="269.44" y1="89.51" x2="282.7" y2="102.77"/>
				<line class="st17" x1="268.98" y1="102.67" x2="282.25" y2="89.41"/>
			</g>
			<text transform="matrix(1 0 0 1 57.4634 99.0693)" class="st9 st10">fetchUser(1)</text>
		</g>
		<g id="fetchUser_x28_2_x29__00000001641802614239953060000003203376536955927947_">
			<line class="st16" x1="191" y1="140" x2="145" y2="52"/>
			<text transform="matrix(1 0 0 1 286.311 143.3564)" class="st9 st10">halted</text>
			<g>
				<line class="st13" x1="184" y1="140" x2="276" y2="140"/>
				<g>
					<line class="st14" x1="192.09" y1="140" x2="276" y2="140"/>
					<g>
						<g>
							<path class="st15" d="M192.52,147.52c-4.15,0-7.52-3.37-7.52-7.52s3.37-7.52,7.52-7.52c4.15,0,7.52,3.37,7.52,7.52
								S196.67,147.52,192.52,147.52z"/>
							<path class="st13" d="M192.52,148.52c4.7,0,8.52-3.82,8.52-8.52s-3.82-8.52-8.52-8.52c-4.7,0-8.52,3.82-8.52,8.52
								S187.82,148.52,192.52,148.52C197.22,148.52,187.82,148.52,192.52,148.52z M192.52,133.48c3.6,0,6.52,2.92,6.52,6.52
								s-2.92,6.52-6.52,6.52c-3.6,0-6.52-2.92-6.52-6.52S188.92,133.48,192.52,133.48C196.12,133.48,188.92,133.48,192.52,133.48z"
								/>
						</g>
					</g>
				</g>
			</g>
			<g>
				<line class="st17" x1="269.44" y1="133.51" x2="282.7" y2="146.77"/>
				<line class="st17" x1="268.98" y1="146.67" x2="282.25" y2="133.41"/>
			</g>
			<text transform="matrix(1 0 0 1 56.4634 143.0693)" class="st9 st10">fetchUser(2)</text>
		</g>
	</g>
	<g id="fetchSomeUsers">
		<g>
			<line class="st13" x1="136" y1="52" x2="276" y2="52"/>
			<g>
				<line class="st14" x1="144.09" y1="52" x2="276" y2="52"/>
				<g>
					<g>
						<path class="st15" d="M144.52,59.52c-4.15,0-7.52-3.37-7.52-7.52s3.37-7.52,7.52-7.52c4.15,0,7.52,3.37,7.52,7.52
							S148.67,59.52,144.52,59.52z"/>
						<path class="st13" d="M144.52,60.52c4.7,0,8.52-3.82,8.52-8.52s-3.82-8.52-8.52-8.52c-4.7,0-8.52,3.82-8.52,8.52
							S139.82,60.52,144.52,60.52C149.22,60.52,139.82,60.52,144.52,60.52z M144.52,45.48c3.6,0,6.52,2.92,6.52,6.52
							s-2.92,6.52-6.52,6.52c-3.6,0-6.52-2.92-6.52-6.52S140.92,45.48,144.52,45.48C148.12,45.48,140.92,45.48,144.52,45.48z"/>
					</g>
				</g>
			</g>
		</g>
		<text transform="matrix(1 0 0 1 33.4595 55.0693)" class="st9 st10">fetchSomeUsers()</text>
		<g>
			<line class="st18" x1="269.74" y1="45.84" x2="283" y2="59.1"/>
			<line class="st18" x1="269.28" y1="59.01" x2="282.55" y2="45.74"/>
		</g>
	</g>
</g>
<g id="Pattern" class="st11">
	<g class="st19">
		<polygon class="st0" points="764.96,-21.65 762.72,-19.41 762.72,-11.2 773.17,-21.65 		"/>
		<polygon class="st0" points="773.17,-8.96 775.41,-11.2 775.41,-19.41 764.96,-8.96 		"/>
		<polygon class="st2" points="775.41,-19.41 775.41,-21.65 773.17,-21.65 762.72,-11.2 762.72,-8.96 764.96,-8.96 		"/>
		<polygon class="st2" points="775.41,-8.96 775.41,-11.2 773.17,-8.96 		"/>
		<polygon class="st2" points="762.72,-21.65 762.72,-19.41 764.96,-21.65 		"/>
	</g>
</g>
</svg>
