<svg xmlns="http://www.w3.org/2000/svg" width="34" height="34" viewBox="0 0 34 34">
  <defs>
    <style>
      .a {
        fill: #fff;
      }

      .a, .b, .c {
        stroke: #14305c;
        stroke-miterlimit: 10;
        stroke-width: 2px;
      }

      .b {
        fill: #26abe8;
      }

      .c {
        fill: #f74d7b;
      }
    </style>
  </defs>
  <g>
    <ellipse class="a" cx="28.45" cy="6.91" rx="4" ry="3.89"/>
    <path class="b" d="M28.45,10.8a3.94,3.94,0,0,1-4-3.89,4,4,0,0,1,.25-1.34,6.45,6.45,0,0,0-1.33-.14A6.3,6.3,0,0,0,17,11.64a6.38,6.38,0,0,0,12.75,0,6.91,6.91,0,0,0-.1-1A4.3,4.3,0,0,1,28.45,10.8Z"/>
    <path class="c" d="M17,11.64a6.26,6.26,0,0,1,.1-1,11.11,11.11,0,0,0-4.69-1,10.82,10.82,0,0,0-11,10.68A10.82,10.82,0,0,0,12.41,31a10.83,10.83,0,0,0,11-10.68,10.66,10.66,0,0,0-.31-2.48A6.27,6.27,0,0,1,17,11.64Z"/>
  </g>
</svg>
