<svg xmlns="http://www.w3.org/2000/svg" width="34" height="34" viewBox="0 0 34 34">
  <defs>
    <style>
      .a {
        fill: #14315d;
      }

      .b {
        fill: #fff;
      }

      .c {
        fill: #f74d7b;
      }

      .d {
        fill: #26abe8;
      }
    </style>
  </defs>
  <g>
    <polygon class="a" points="16.96 0.27 2.54 5.3 3.54 25.22 16.96 33.58 30.39 25.22 31.39 5.3 16.96 0.27"/>
    <polygon class="b" points="16.96 3.52 12.53 5.13 11.68 16.94 16.96 19.57 15.95 29.72 16.95 30.36 18.43 29.42 23.6 16.94 18.39 14.14 20.88 4.94 16.96 3.52"/>
    <polygon class="c" points="5.33 7.74 12.53 5.13 11.68 16.94 16.96 19.57 15.95 29.72 6.41 23.63 5.33 7.74"/>
    <polygon class="d" points="27.52 23.63 18.43 29.42 23.6 16.94 18.39 14.14 20.88 4.94 28.6 7.74 27.52 23.63"/>
  </g>
</svg>
